<svg width="186" height="42" viewBox="0 0 186 42" fill="none" xmlns="http://www.w3.org/2000/svg">
<path fill-rule="evenodd" clip-rule="evenodd" d="M59.0372 3.22861C59.0372 1.83922 60.1758 0.712891 61.5805 0.712891H66.0111C67.0108 0.712891 67.9797 1.05559 68.7527 1.68265L70.1005 2.77593L70.1342 2.80634C70.1653 2.79596 70.1964 2.78582 70.2276 2.77593C72.6592 2.00554 75.6094 1.85903 78.6205 1.85903C81.6316 1.85903 84.5818 2.00554 87.0134 2.77593C87.0446 2.78582 87.0757 2.79596 87.1068 2.80634L87.1405 2.77593L88.4883 1.68265C89.2613 1.05559 90.2302 0.712891 91.2299 0.712891H95.6605C97.0652 0.712891 98.2038 1.83922 98.2038 3.22861V4.78379C98.2038 5.98704 97.6914 7.13463 96.7922 7.94503L95.7049 8.92502C95.1741 9.40344 94.537 9.75162 93.845 9.94144L93.5878 10.012C94.5953 12.3899 95.1519 14.9317 95.1519 16.9879C95.1519 25.2593 89.978 28.8316 85.4192 31.9792C81.8291 34.458 78.6205 36.6733 78.6205 40.7129C78.6205 36.6733 75.4119 34.458 71.8218 31.9792C67.263 28.8316 62.0891 25.2593 62.0891 16.9879C62.0891 14.9317 62.6457 12.3899 63.6532 10.012L63.396 9.94144C62.704 9.75162 62.0669 9.40344 61.5361 8.92502L60.4488 7.94503C59.5496 7.13463 59.0372 5.98704 59.0372 4.78379V3.22861ZM81.9268 23.7501C81.9268 24.1453 81.7526 24.5242 81.4426 24.8037C81.1326 25.0831 80.7121 25.2401 80.2736 25.2401C79.8951 25.2401 79.5299 25.123 79.2377 24.9112C79.7351 26.2282 81.008 27.4761 82.9441 25.4693C84.6533 23.6046 82.8681 19.6717 81.1289 17.3379C80.5492 16.56 79.5975 16.1856 78.6205 16.1856C77.6435 16.1856 76.6918 16.56 76.1121 17.3379C74.3729 19.6717 72.5877 23.6046 74.2969 25.4693C76.233 27.4761 77.5059 26.2282 78.0033 24.9112C77.7111 25.123 77.3459 25.2401 76.9674 25.2401C76.5289 25.2401 76.1084 25.0831 75.7984 24.8037C75.4884 24.5242 75.3142 24.1453 75.3142 23.7501H81.9268ZM72.2898 12.108H67.6844L71.3139 14.9827C72.1126 15.6152 73.28 15.413 73.7742 14.5565C74.3982 13.4751 73.5694 12.108 72.2898 12.108ZM84.9512 12.108H89.5566L85.9271 14.9827C85.1284 15.6152 83.961 15.413 83.4668 14.5565C82.8428 13.4751 83.6716 12.108 84.9512 12.108Z" fill="#72B800"/>
<path d="M103.69 29.0462H107.77V13.6562H103.69V29.0462ZM103.69 11.2562H107.77V7.59619H103.69V11.2562Z" fill="#355030"/>
<path d="M110.399 34.0863H114.479V27.3063H114.539C115.409 28.6263 116.819 29.4963 118.979 29.4963C122.939 29.4963 125.639 26.3463 125.639 21.3663C125.639 16.5663 123.029 13.2363 118.949 13.2363C116.849 13.2363 115.409 14.2263 114.419 15.5763H114.329V13.6563H110.399V34.0863ZM118.109 26.1063C115.679 26.1063 114.389 24.2763 114.389 21.4863C114.389 18.7263 115.409 16.5363 117.959 16.5363C120.479 16.5363 121.499 18.5763 121.499 21.4863C121.499 24.3963 120.179 26.1063 118.109 26.1063Z" fill="#355030"/>
<path d="M133.778 29.4963C137.618 29.4963 140.258 27.6363 140.258 24.5463C140.258 20.9463 137.408 20.2263 134.828 19.6863C132.638 19.2363 130.598 19.1163 130.598 17.7963C130.598 16.6863 131.648 16.0863 133.238 16.0863C134.978 16.0863 136.028 16.6863 136.208 18.3363H139.898C139.598 15.2463 137.348 13.2363 133.298 13.2363C129.788 13.2363 127.028 14.8263 127.028 18.1563C127.028 21.5163 129.728 22.2663 132.488 22.8063C134.588 23.2263 136.538 23.3763 136.538 24.8463C136.538 25.9263 135.518 26.6163 133.718 26.6163C131.888 26.6163 130.628 25.8363 130.358 24.0663H126.578C126.818 27.3363 129.308 29.4963 133.778 29.4963Z" fill="#355030"/>
<path d="M155.749 29.0463V13.6562H151.669V22.5363C151.669 24.5763 150.499 26.0163 148.579 26.0163C146.839 26.0163 146.029 25.0262 146.029 23.2262V13.6562H141.979V23.9163C141.979 27.2762 143.899 29.4662 147.319 29.4662C149.479 29.4662 150.679 28.6562 151.729 27.2463H151.819V29.0463H155.749Z" fill="#355030"/>
<path d="M158.388 29.0463H162.468V20.1063C162.468 18.0663 163.578 16.7463 165.228 16.7463C166.728 16.7463 167.598 17.6463 167.598 19.3863V29.0463H171.678V20.1063C171.678 18.0663 172.728 16.7463 174.438 16.7463C175.938 16.7463 176.808 17.6463 176.808 19.3863V29.0463H180.888V18.6963C180.888 15.3363 179.058 13.2363 175.818 13.2363C173.868 13.2363 172.248 14.2563 171.198 15.9363H171.138C170.388 14.3163 168.828 13.2363 166.878 13.2363C164.748 13.2363 163.248 14.3163 162.408 15.7263H162.318V13.6563H158.388V29.0463Z" fill="#355030"/>
<path d="M0.684082 29.0462H4.76408V7.59619H0.684082V29.0462Z" fill="#355030"/>
<path d="M14.7403 29.4963C19.5103 29.4963 22.7803 25.9563 22.7803 21.3663C22.7803 16.7763 19.5103 13.2363 14.7403 13.2363C9.97026 13.2363 6.70026 16.7763 6.70026 21.3663C6.70026 25.9563 9.97026 29.4963 14.7403 29.4963ZM14.7403 26.3763C12.2203 26.3763 10.8403 24.3663 10.8403 21.3663C10.8403 18.3663 12.2203 16.3263 14.7403 16.3263C17.2303 16.3263 18.6403 18.3663 18.6403 21.3663C18.6403 24.3663 17.2303 26.3763 14.7403 26.3763Z" fill="#355030"/>
<path d="M31.4568 34.2963C33.7368 34.2963 35.7168 33.7563 37.0068 32.5563C38.1468 31.5063 38.8368 30.0363 38.8368 27.8763V13.6563H34.9068V15.2763H34.8468C33.9168 13.9863 32.5068 13.2363 30.5868 13.2363C26.6868 13.2363 23.9268 16.1763 23.9268 20.7663C23.9268 25.4163 27.2868 28.1163 30.7068 28.1163C32.6568 28.1163 33.8268 27.3363 34.7268 26.3163H34.8168V27.9963C34.8168 30.0963 33.7068 31.2063 31.3968 31.2063C29.5068 31.2063 28.6368 30.4563 28.3068 29.4963H24.2568C24.6768 32.4963 27.2568 34.2963 31.4568 34.2963ZM31.3968 24.8463C29.2968 24.8463 27.9168 23.3163 27.9168 20.7063C27.9168 18.1263 29.2968 16.5063 31.3668 16.5063C33.8268 16.5063 35.0268 18.4263 35.0268 20.6763C35.0268 22.9563 33.9768 24.8463 31.3968 24.8463Z" fill="#355030"/>
<path d="M48.7539 29.4963C53.5239 29.4963 56.7939 25.9563 56.7939 21.3663C56.7939 16.7763 53.5239 13.2363 48.7539 13.2363C43.9839 13.2363 40.7139 16.7763 40.7139 21.3663C40.7139 25.9563 43.9839 29.4963 48.7539 29.4963ZM48.7539 26.3763C46.2339 26.3763 44.8539 24.3663 44.8539 21.3663C44.8539 18.3663 46.2339 16.3263 48.7539 16.3263C51.2439 16.3263 52.6539 18.3663 52.6539 21.3663C52.6539 24.3663 51.2439 26.3763 48.7539 26.3763Z" fill="#355030"/>
<path d="M180.704 10.2964C180.704 9.60603 181.263 9.04639 181.954 9.04639H184.454C185.144 9.04639 185.704 9.60603 185.704 10.2964C185.704 10.9867 185.144 11.5464 184.454 11.5464H181.954C181.263 11.5464 180.704 10.9867 180.704 10.2964Z" fill="#355030"/>
</svg>
