<svg width="223" height="222" viewBox="0 0 223 222" fill="none" xmlns="http://www.w3.org/2000/svg">
<path d="M111.304 1C133.06 1 154.328 7.45139 172.417 19.5383C190.506 31.6253 204.605 48.805 212.931 68.9048C221.257 89.0047 223.435 111.122 219.191 132.46C214.946 153.798 204.47 173.398 189.086 188.782L167.307 167.003C178.383 155.927 185.926 141.814 188.982 126.451C192.038 111.088 190.47 95.1634 184.475 80.6915C178.481 66.2196 168.33 53.8502 155.305 45.1476C142.281 36.445 126.968 31.8 111.304 31.8V1Z" fill="#00C503" stroke="white" stroke-width="2"/>
<path d="M111.304 221C91.9952 221 73.0263 215.917 56.3042 206.263L71.7042 179.589C83.7441 186.54 97.4017 190.2 111.304 190.2L111.304 221Z" fill="#006304" stroke="white" stroke-width="2"/>
<path d="M56.3042 206.263C39.5821 196.608 25.6959 182.722 16.0414 166C6.38689 149.278 1.3042 130.309 1.3042 111H32.1042C32.1042 124.902 35.7637 138.56 42.715 150.6C49.6662 162.64 59.6643 172.638 71.7042 179.589L56.3042 206.263Z" fill="#F44336" stroke="white" stroke-width="2"/>
<path d="M1.3042 111C1.3042 96.5546 4.14944 82.2506 9.67746 68.9048C15.2055 55.559 23.308 43.4327 33.5225 33.2182L55.3013 54.9971C47.9469 62.3515 42.1131 71.0825 38.1329 80.6915C34.1528 90.3004 32.1042 100.599 32.1042 111H1.3042Z" fill="#B34C00" stroke="white" stroke-width="2"/>
<path d="M33.5224 33.2183C43.7369 23.0038 55.8632 14.9013 69.209 9.37325C82.5548 3.84523 96.8588 1 111.304 1V31.8C100.904 31.8 90.6047 33.8486 80.9957 37.8287C71.3867 41.8089 62.6557 47.6427 55.3013 54.9971L33.5224 33.2183Z" fill="#666666" stroke="white" stroke-width="2"/>
<path d="M189.086 188.782C168.457 209.411 140.478 221 111.304 221V190.2C132.309 190.2 152.454 181.856 167.307 167.003L189.086 188.782Z" fill="#4DFA72" stroke="white" stroke-width="2"/>
</svg>
